<svg width="32" height="32" viewBox="0 0 32 32" fill="none" xmlns="http://www.w3.org/2000/svg">
<path d="M6.66699 12.2917C6.66699 8.38296 6.66699 6.42858 7.69212 5.21429C8.71724 4 10.3672 4 13.667 4H18.3337C21.6335 4 23.2834 4 24.3085 5.21429C25.3337 6.42858 25.3337 8.38296 25.3337 12.2917V21.7271C25.3337 25.4353 25.3337 27.2894 24.3486 27.8565C23.3636 28.4236 22.1329 27.2781 19.6713 24.9871L18.8835 24.2539C17.4994 22.9657 16.8073 22.3216 16.0003 22.3216C15.1933 22.3216 14.5013 22.9657 13.1172 24.2539L12.3294 24.9871C9.8678 27.2781 8.63701 28.4236 7.652 27.8565C6.66699 27.2894 6.66699 25.4353 6.66699 21.7271V12.2917Z" stroke="white"/>
</svg>
