<svg width="79" height="80" viewBox="0 0 79 80" fill="none" xmlns="http://www.w3.org/2000/svg">
<path d="M32.7001 0.756414C33.3709 -0.088437 34.5909 -0.249042 35.4575 0.39341L44.3422 6.97998C44.8378 7.34736 45.4751 7.4655 46.0694 7.30011L56.7245 4.3351C57.7638 4.04589 58.8451 4.63303 59.1686 5.66217L62.485 16.2131C62.67 16.8016 63.1162 17.2718 63.6942 17.4874L74.0571 21.3515C75.0679 21.7284 75.5976 22.839 75.2544 23.8617L71.7357 34.347C71.5395 34.9318 71.6241 35.5745 71.965 36.0886L78.0775 45.3059C78.6737 46.2049 78.4495 47.4148 77.5707 48.0405L68.5609 54.455C68.0584 54.8128 67.7491 55.3824 67.7227 55.9988L67.25 67.0485C67.2039 68.1263 66.3114 68.9733 65.2326 68.963L54.1733 68.8566C53.5564 68.8507 52.9713 69.1298 52.5877 69.6129L45.7104 78.2745C45.0396 79.1193 43.8196 79.28 42.953 78.6375L34.0683 72.0509C33.5728 71.6836 32.9354 71.5654 32.3411 71.7308L21.686 74.6958C20.6468 74.985 19.5654 74.3979 19.2419 73.3687L15.9255 62.8178C15.7405 62.2293 15.2943 61.7591 14.7163 61.5436L4.35342 57.6794C3.34262 57.3025 2.81289 56.1919 3.1561 55.1692L6.67478 44.684C6.87104 44.0991 6.78643 43.4564 6.44549 42.9423L0.333007 33.725C-0.263203 32.826 -0.0389576 31.6161 0.839848 30.9904L9.84958 24.5759C10.3521 24.2181 10.6614 23.6485 10.6878 23.0321L11.1605 11.9824C11.2066 10.9046 12.0992 10.0576 13.1779 10.0679L24.2372 10.1743C24.8541 10.1802 25.4392 9.90115 25.8228 9.41803L32.7001 0.756414Z" fill="#E46962"/>
</svg>
